#!OML:ASF H:\MichaelJackson\Top Level 1\Subject 1\Session 1\male.ASF
:FULLY-SPECIFIED
:DEGREES
2222
root 9.81951 16.6225 36.7965 -363.5 63.21 349.211
lowerback -4.17064 -3.25324 3.34129
upperback -1.19818 -4.45839 -0.349504
thorax 0.817786 -2.22589 -2.42877
lowerneck -5.42364 -4.47076 1.02888
upperneck 1.93636 -6.15904 4.05119
head 1.62366 -2.9682 0.904371
rclavicle -3.34331e-014 6.36111e-015
rhumerus 12.9165 -21.9388 -6.21546
rradius 35.8267
rwrist -14.6214
rhand -34.9259 -37.9315
rfingers 7.12502
rthumb -8.07325 -67.7573
lclavicle -3.34331e-014 6.36111e-015
lhumerus -45.5471 -28.007 112.258
lradius 48.899
lwrist 18.1136
lhand 28.4101 27.6272
lfingers 7.12502
lthumb 52.272 47.5699
rfemur -7.59072 3.37196 16.4408
rtibia 28.5406
rfoot -18.4662 -26.8794
rtoes -13.0333
lfemur -14.5259 -13.8497 3.13623
ltibia 24.8304
lfoot -11.5917 16.9649
ltoes -5.04621
2223
root 9.81828 16.6224 36.794 -363.558 63.2592 349.185
lowerback -4.18769 -3.21629 3.38617
upperback -1.2176 -4.41074 -0.374118
thorax 0.805051 -2.20257 -2.47739
lowerneck -5.39955 -4.50245 1.01709
upperneck 1.95117 -6.20168 4.08416
head 1.62662 -2.98875 0.915681
rclavicle -3.91357e-014 1.03368e-014
rhumerus 12.757 -21.9286 -6.17154
rradius 35.8302
rwrist -14.6217
rhand -34.9637 -37.8986
rfingers 7.12502
rthumb -8.1097 -67.723
lclavicle -3.91357e-014 1.03368e-014
lhumerus -45.6672 -28.1636 112.296
lradius 48.9833
lwrist 18.2856
lhand 28.4716 27.6605
lfingers 7.12502
lthumb 52.3277 47.5695
rfemur -7.52063 3.54246 16.4625
rtibia 28.5038
rfoot -18.6447 -26.9833
rtoes -12.523
lfemur -14.5249 -13.9335 3.13694
ltibia 24.8364
lfoot -11.5941 16.9924
ltoes -5.03832
2224
root 9.81665 16.6224 36.7914 -363.558 63.3245 349.224
lowerback -4.21256 -3.21607 3.35046
upperback -1.22133 -4.40976 -0.366889
thorax 0.81846 -2.20177 -2.45166
lowerneck -5.47338 -4.4993 1.0325
upperneck 1.97004 -6.1999 4.05326
head 1.64393 -2.9871 0.901627
rclavicle -5.31625e-014 1.59028e-014
rhumerus 12.7285 -21.916 -6.16011
rradius 35.8113
rwrist -14.6003
rhand -35.0512 -38.054
rfingers 7.12502
rthumb -8.19423 -67.8751
lclavicle -5.31625e-014 1.59028e-014
lhumerus -45.6471 -28.1571 112.299
lradius 48.994
lwrist 18.3681
lhand 28.5307 27.6884
lfingers 7.12502
lthumb 52.3813 47.5648
rfemur -7.4578 3.61593 16.4485
rtibia 28.4785
rfoot -18.6705 -27.0946
rtoes -12.4808
lfemur -14.5325 -13.9453 3.09717
ltibia 24.8363
lfoot -11.5309 16.9512
ltoes -5.16618
2225
root 9.8138 16.6219 36.7887 -363.603 63.372 349.21
lowerback -4.24322 -3.22611 3.32397
upperback -1.2264 -4.42308 -0.349693
thorax 0.832861 -2.20808 -2.42171
lowerneck -5.55261 -4.47299 1.00028
upperneck 2.08396 -6.17041 4.08321
head 1.69676 -2.96868 0.91443
rclavicle -1.58903e-014 -4.77083e-015
rhumerus 12.7433 -21.8674 -6.16297
rradius 35.7754
rwrist -14.6135
rhand -35.0765 -38.1015
rfingers 7.12502
rthumb -8.21865 -67.9217
lclavicle -1.58903e-014 -4.77083e-015
lhumerus -45.4061 -27.936 112.2
lradius 48.7711
lwrist 18.2617
lhand 28.6464 27.6972
lfingers 7.12502
lthumb 52.4859 47.5097
rfemur -7.40755 3.7642 16.4719
rtibia 28.4609
rfoot -18.7228 -27.2639
rtoes -12.3887
lfemur -14.5344 -13.9583 3.09999
ltibia 24.8322
lfoot -11.5528 16.897
ltoes -5.1066
2226
root 9.81112 16.6209 36.786 -363.645 63.398 349.213
lowerback -4.24959 -3.20548 3.32542
upperback -1.23528 -4.39557 -0.353013
thorax 0.828706 -2.19449 -2.42492
lowerneck -5.53849 -4.45736 0.952921
upperneck 2.082 -6.14723 4.12146
head 1.69649 -2.95683 0.935461
rclavicle 5.45291e-014 3.97569e-015
rhumerus 12.6877 -21.8566 -6.16225
rradius 35.7335
rwrist -14.567
rhand -35.072 -38.0875
rfingers 7.12502
rthumb -8.21425 -67.9079
lclavicle 5.45291e-014 3.97569e-015
lhumerus -45.433 -27.9723 112.226
lradius 48.7727
lwrist 18.2856
lhand 28.6415 27.5888
lfingers 7.12502
lthumb 52.4816 47.404
rfemur -7.35253 3.88977 16.4825
rtibia 28.4487
rfoot -18.7983 -27.3699
rtoes -12.1289
lfemur -14.5143 -13.8636 3.08011
ltibia 24.8283
lfoot -11.5384 16.7791
ltoes -5.23107
2227
root 9.80811 16.6207 36.7829 -363.717 63.4398 349.171
lowerback -4.22831 -3.17591 3.38713
upperback -1.27153 -4.35682 -0.372401
thorax 0.775896 -2.1766 -2.47466
lowerneck -5.61263 -4.47805 0.91922
upperneck 2.22301 -6.18067 4.1265
head 1.75743 -2.96998 0.938528
rclavicle 2.27981e-014 -7.15625e-015
rhumerus 12.5627 -21.7874 -6.11709
rradius 35.7191
rwrist -14.5386
rhand -35.0236 -38.191
rfingers 7.12502
rthumb -8.16755 -68.0131
lclavicle 2.27981e-014 -7.15625e-015
lhumerus -45.5038 -28.0168 112.29
lradius 48.7491
lwrist 18.2633
lhand 28.684 27.4298
lfingers 7.12502
lthumb 52.52 47.2215
rfemur -7.31131 3.929 16.5078
rtibia 28.4411
rfoot -18.8382 -27.4123
rtoes -11.9634
lfemur -14.5084 -13.8423 3.0906
ltibia 24.8238
lfoot -11.5107 16.6961
ltoes -5.23487
2228
root 9.80506 16.62 36.7796 -363.742 63.4629 349.194
lowerback -4.2499 -3.14829 3.3711
upperback -1.26798 -4.32009 -0.376859
thorax 0.794909 -2.1578 -2.4705
lowerneck -5.63105 -4.47898 0.940162
upperneck 2.225 -6.18255 4.09219
head 1.75923 -2.97127 0.923743
rclavicle 1.45361e-015 1.59028e-015
rhumerus 12.4994 -21.7778 -6.07494
rradius 35.6993
rwrist -14.559
rhand -35.0056 -38.2633
rfingers 7.12502
rthumb -8.15014 -68.0861
lclavicle 1.45361e-015 1.59028e-015
lhumerus -45.5272 -28.1111 112.34
lradius 48.7538
lwrist 18.2594
lhand 28.6245 27.4644
lfingers 7.12502
lthumb 52.4662 47.289
rfemur -7.26237 4.02599 16.5052
rtibia 28.4363
rfoot -18.8685 -27.5163
rtoes -12.0182
lfemur -14.4882 -13.8027 3.0677
ltibia 24.8182
lfoot -11.5577 16.5896
ltoes -4.9131
2229
root 9.80177 16.6186 36.776 -363.813 63.492 349.154
lowerback -4.29949 -3.15969 3.3723
upperback -1.24281 -4.33797 -0.348522
thorax 0.849382 -2.16529 -2.44704
lowerneck -5.60725 -4.42361 0.941201
upperneck 2.14636 -6.10459 4.09195
head 1.72811 -2.93422 0.927442
rclavicle -6.83322e-015 1.03368e-014
rhumerus 12.5355 -21.7947 -6.10864
rradius 35.7104
rwrist -14.5877
rhand -34.9699 -38.2735
rfingers 7.12502
rthumb -8.11569 -68.0976
lclavicle -6.83322e-015 1.03368e-014
lhumerus -45.413 -28.0806 112.33
lradius 48.7105
lwrist 18.1611
lhand 28.6148 27.4686
lfingers 7.12502
lthumb 52.4574 47.2986
rfemur -7.2254 4.07435 16.5305
rtibia 28.429
rfoot -18.8879 -27.5987
rtoes -11.9761
lfemur -14.4831 -13.7739 3.07859
ltibia 24.8174
lfoot -11.578 16.5265
ltoes -4.96094
2230
root 9.79873 16.6186 36.7728 -363.845 63.4977 349.166
lowerback -4.28427 -3.14752 3.37756
upperback -1.26181 -4.32081 -0.359571
thorax 0.821238 -2.15748 -2.45887
lowerneck -5.62539 -4.40778 1.07299
upperneck 2.18959 -6.0898 3.95273
head 1.73488 -2.92796 0.861374
rclavicle 2.77553e-014 -4.77083e-015
rhumerus 12.4752 -21.7332 -6.11394
rradius 35.7365
rwrist -14.642
rhand -34.9426 -38.2455
rfingers 7.12502
rthumb -8.08938 -68.0706
lclavicle 2.77553e-014 -4.77083e-015
lhumerus -45.5228 -28.0962 112.351
lradius 48.7938
lwrist 18.0597
lhand 28.6425 27.4772
lfingers 7.12502
lthumb 52.4825 47.2918
rfemur -7.18527 4.13034 16.5292
rtibia 28.4206
rfoot -18.8865 -27.6629
rtoes -11.9276
lfemur -14.4509 -13.7586 3.06451
ltibia 24.816
lfoot -11.6626 16.427
ltoes -4.44865
2231
root 9.79546 16.6172 36.7695 -363.904 63.5416 349.14
lowerback -4.2553 -3.15745 3.39185
upperback -1.29455 -4.33283 -0.351689
thorax 0.770137 -2.1648 -2.45601
lowerneck -5.60689 -4.38718 1.07148
upperneck 2.20316 -6.06046 3.89736
head 1.73344 -2.91479 0.845528
rclavicle 6.23438e-014 2.38542e-015
rhumerus 12.4924 -21.7064 -6.15299
rradius 35.737
rwrist -14.6187
rhand -34.9219 -38.0988
rfingers 7.12502
rthumb -8.06942 -67.9247
lclavicle 6.23438e-014 2.38542e-015
lhumerus -45.5813 -28.0924 112.385
lradius 48.8106
lwrist 17.9588
lhand 28.641 27.4343
lfingers 7.12502
lthumb 52.4811 47.2498
rfemur -7.14633 4.1726 16.5426
rtibia 28.4162
rfoot -18.9397 -27.715
rtoes -11.8467
lfemur -14.454 -13.7404 3.06691
ltibia 24.8183
lfoot -11.6213 16.3765
ltoes -4.66047
